<svg xmlns="http://www.w3.org/2000/svg" xmlns:xlink="http://www.w3.org/1999/xlink" width="1920" zoomAndPan="magnify" viewBox="0 0 1440 809.999993" height="1080" preserveAspectRatio="xMidYMid meet" version="1.0"><path fill="#ffbd59" d="M 756.75 421.945312 C 751.847656 419.089844 748.175781 414.597656 746.539062 409.289062 C 742.863281 397.035156 732.246094 388.460938 719.996094 388.460938 C 707.746094 388.460938 697.128906 397.445312 693.453125 409.289062 C 691.820312 414.597656 688.144531 419.089844 683.242188 421.945312 C 664.050781 432.972656 659.964844 454.617188 659.964844 470.132812 C 659.964844 491.371094 700.394531 492.1875 712.644531 469.316406 C 715.914062 463.601562 724.082031 463.601562 726.9375 469.316406 C 739.191406 492.1875 779.617188 491.371094 779.617188 470.132812 C 780.027344 455.023438 775.941406 432.972656 756.75 421.945312 Z M 756.75 421.945312 " fill-opacity="1" fill-rule="nonzero"/><path fill="#ffbd59" d="M 671.648438 376.3125 C 672.378906 377.039062 673.078125 377.792969 673.75 378.570312 C 674.421875 379.34375 675.066406 380.140625 675.675781 380.960938 C 676.289062 381.777344 676.863281 382.609375 677.40625 383.460938 C 677.949219 384.3125 678.457031 385.175781 678.925781 386.050781 C 679.398438 386.925781 679.828125 387.808594 680.222656 388.703125 C 680.613281 389.59375 680.964844 390.488281 681.277344 391.390625 C 681.589844 392.289062 681.859375 393.1875 682.085938 394.085938 C 682.3125 394.984375 682.496094 395.878906 682.636719 396.769531 C 682.777344 397.660156 682.871094 398.539062 682.925781 399.410156 C 682.976562 400.28125 682.984375 401.140625 682.949219 401.984375 C 682.914062 402.828125 682.835938 403.65625 682.710938 404.46875 C 682.585938 405.277344 682.421875 406.066406 682.210938 406.835938 C 682 407.601562 681.746094 408.347656 681.449219 409.066406 C 681.15625 409.78125 680.820312 410.472656 680.441406 411.132812 C 680.0625 411.796875 679.648438 412.425781 679.191406 413.023438 C 678.734375 413.621094 678.242188 414.1875 677.714844 414.714844 C 677.183594 415.246094 676.621094 415.738281 676.023438 416.195312 C 675.421875 416.648438 674.792969 417.066406 674.132812 417.445312 C 673.46875 417.820312 672.78125 418.15625 672.0625 418.453125 C 671.34375 418.75 670.601562 419 669.832031 419.210938 C 669.066406 419.421875 668.277344 419.589844 667.464844 419.714844 C 666.65625 419.835938 665.828125 419.917969 664.984375 419.953125 C 664.136719 419.988281 663.28125 419.980469 662.410156 419.929688 C 661.539062 419.875 660.65625 419.777344 659.765625 419.636719 C 658.878906 419.496094 657.984375 419.3125 657.085938 419.085938 C 656.1875 418.859375 655.285156 418.589844 654.386719 418.28125 C 653.488281 417.96875 652.589844 417.617188 651.699219 417.222656 C 650.808594 416.832031 649.925781 416.402344 649.046875 415.929688 C 648.171875 415.460938 647.308594 414.953125 646.460938 414.410156 C 645.609375 413.867188 644.773438 413.289062 643.957031 412.679688 C 643.140625 412.070312 642.34375 411.425781 641.566406 410.753906 C 640.789062 410.082031 640.039062 409.382812 639.308594 408.652344 C 638.582031 407.925781 637.878906 407.171875 637.207031 406.394531 C 636.535156 405.617188 635.894531 404.820312 635.28125 404.003906 C 634.671875 403.1875 634.09375 402.351562 633.550781 401.503906 C 633.007812 400.652344 632.5 399.789062 632.03125 398.914062 C 631.5625 398.039062 631.128906 397.152344 630.738281 396.261719 C 630.34375 395.371094 629.992188 394.476562 629.679688 393.574219 C 629.371094 392.675781 629.101562 391.777344 628.875 390.878906 C 628.648438 389.976562 628.464844 389.085938 628.324219 388.195312 C 628.183594 387.304688 628.085938 386.425781 628.03125 385.554688 C 627.980469 384.683594 627.972656 383.824219 628.007812 382.980469 C 628.042969 382.132812 628.125 381.304688 628.246094 380.496094 C 628.371094 379.6875 628.539062 378.898438 628.75 378.128906 C 628.960938 377.359375 629.210938 376.617188 629.507812 375.898438 C 629.804688 375.179688 630.140625 374.492188 630.515625 373.828125 C 630.894531 373.167969 631.3125 372.539062 631.765625 371.941406 C 632.222656 371.339844 632.714844 370.777344 633.246094 370.246094 C 633.773438 369.71875 634.339844 369.226562 634.9375 368.769531 C 635.535156 368.3125 636.164062 367.898438 636.828125 367.519531 C 637.488281 367.144531 638.175781 366.808594 638.894531 366.511719 C 639.613281 366.214844 640.355469 365.960938 641.125 365.753906 C 641.894531 365.542969 642.683594 365.375 643.492188 365.25 C 644.300781 365.125 645.128906 365.046875 645.976562 365.011719 C 646.820312 364.976562 647.679688 364.984375 648.550781 365.035156 C 649.421875 365.089844 650.300781 365.183594 651.191406 365.324219 C 652.082031 365.464844 652.972656 365.648438 653.875 365.875 C 654.773438 366.105469 655.671875 366.371094 656.570312 366.683594 C 657.472656 366.996094 658.367188 367.347656 659.257812 367.738281 C 660.152344 368.132812 661.035156 368.5625 661.910156 369.035156 C 662.785156 369.503906 663.648438 370.011719 664.5 370.554688 C 665.347656 371.097656 666.183594 371.671875 667 372.285156 C 667.820312 372.894531 668.617188 373.535156 669.390625 374.210938 C 670.167969 374.882812 670.921875 375.582031 671.648438 376.3125 Z M 671.648438 376.3125 " fill-opacity="1" fill-rule="nonzero"/><path fill="#ffbd59" d="M 715.324219 349.632812 C 715.585938 350.503906 715.8125 351.382812 716 352.273438 C 716.191406 353.160156 716.34375 354.050781 716.457031 354.949219 C 716.574219 355.84375 716.652344 356.742188 716.695312 357.636719 C 716.734375 358.53125 716.738281 359.425781 716.707031 360.3125 C 716.671875 361.199219 716.601562 362.078125 716.496094 362.945312 C 716.386719 363.816406 716.242188 364.671875 716.058594 365.515625 C 715.878906 366.359375 715.660156 367.1875 715.40625 367.996094 C 715.152344 368.808594 714.863281 369.597656 714.542969 370.363281 C 714.21875 371.132812 713.863281 371.875 713.472656 372.59375 C 713.085938 373.3125 712.664062 374.003906 712.214844 374.667969 C 711.761719 375.328125 711.28125 375.960938 710.769531 376.5625 C 710.261719 377.160156 709.726562 377.726562 709.160156 378.257812 C 708.597656 378.792969 708.011719 379.285156 707.402344 379.746094 C 706.789062 380.203125 706.160156 380.625 705.503906 381.003906 C 704.851562 381.382812 704.183594 381.722656 703.492188 382.023438 C 702.804688 382.324219 702.101562 382.578125 701.386719 382.792969 C 700.667969 383.007812 699.9375 383.179688 699.199219 383.308594 C 698.460938 383.4375 697.710938 383.523438 696.957031 383.5625 C 696.203125 383.605469 695.445312 383.601562 694.683594 383.554688 C 693.921875 383.507812 693.15625 383.414062 692.394531 383.28125 C 691.632812 383.144531 690.871094 382.96875 690.117188 382.746094 C 689.363281 382.523438 688.613281 382.261719 687.871094 381.957031 C 687.128906 381.652344 686.398438 381.304688 685.679688 380.917969 C 684.957031 380.53125 684.253906 380.105469 683.5625 379.644531 C 682.867188 379.179688 682.195312 378.679688 681.539062 378.140625 C 680.882812 377.605469 680.246094 377.03125 679.628906 376.425781 C 679.011719 375.824219 678.421875 375.1875 677.851562 374.519531 C 677.285156 373.851562 676.742188 373.15625 676.226562 372.433594 C 675.710938 371.710938 675.226562 370.964844 674.765625 370.195312 C 674.308594 369.421875 673.882812 368.628906 673.484375 367.816406 C 673.089844 367.003906 672.726562 366.175781 672.398438 365.328125 C 672.066406 364.484375 671.773438 363.625 671.511719 362.753906 C 671.25 361.882812 671.023438 361.003906 670.835938 360.113281 C 670.644531 359.226562 670.492188 358.335938 670.378906 357.4375 C 670.261719 356.542969 670.183594 355.644531 670.140625 354.75 C 670.101562 353.851562 670.097656 352.960938 670.128906 352.074219 C 670.164062 351.1875 670.234375 350.308594 670.34375 349.441406 C 670.449219 348.570312 670.59375 347.714844 670.777344 346.871094 C 670.957031 346.027344 671.175781 345.199219 671.429688 344.390625 C 671.683594 343.578125 671.972656 342.789062 672.292969 342.023438 C 672.617188 341.253906 672.972656 340.511719 673.363281 339.792969 C 673.75 339.074219 674.171875 338.382812 674.625 337.71875 C 675.074219 337.058594 675.554688 336.425781 676.066406 335.824219 C 676.574219 335.226562 677.113281 334.660156 677.675781 334.128906 C 678.238281 333.59375 678.824219 333.101562 679.433594 332.640625 C 680.046875 332.183594 680.679688 331.761719 681.332031 331.382812 C 681.984375 331.003906 682.652344 330.660156 683.34375 330.363281 C 684.03125 330.0625 684.734375 329.804688 685.453125 329.589844 C 686.167969 329.375 686.898438 329.207031 687.636719 329.078125 C 688.375 328.949219 689.125 328.863281 689.878906 328.824219 C 690.632812 328.78125 691.390625 328.785156 692.152344 328.832031 C 692.917969 328.878906 693.679688 328.972656 694.441406 329.105469 C 695.203125 329.242188 695.964844 329.417969 696.71875 329.640625 C 697.476562 329.859375 698.222656 330.125 698.964844 330.429688 C 699.707031 330.734375 700.4375 331.082031 701.15625 331.46875 C 701.878906 331.855469 702.582031 332.28125 703.277344 332.742188 C 703.96875 333.207031 704.640625 333.707031 705.296875 334.246094 C 705.957031 334.78125 706.59375 335.355469 707.207031 335.960938 C 707.824219 336.5625 708.414062 337.199219 708.984375 337.867188 C 709.550781 338.535156 710.09375 339.230469 710.609375 339.953125 C 711.125 340.675781 711.613281 341.421875 712.070312 342.191406 C 712.527344 342.964844 712.953125 343.757812 713.351562 344.570312 C 713.746094 345.382812 714.109375 346.210938 714.4375 347.058594 C 714.769531 347.902344 715.066406 348.761719 715.324219 349.632812 Z M 715.324219 349.632812 " fill-opacity="1" fill-rule="nonzero"/><path fill="#ffbd59" d="M 806.800781 370.351562 C 807.328125 370.878906 807.824219 371.445312 808.277344 372.042969 C 808.734375 372.640625 809.148438 373.273438 809.527344 373.933594 C 809.90625 374.59375 810.242188 375.285156 810.535156 376.003906 C 810.832031 376.722656 811.085938 377.464844 811.296875 378.230469 C 811.507812 379 811.671875 379.789062 811.796875 380.597656 C 811.921875 381.410156 812 382.238281 812.035156 383.082031 C 812.074219 383.925781 812.0625 384.785156 812.011719 385.65625 C 811.960938 386.527344 811.863281 387.410156 811.722656 388.296875 C 811.582031 389.1875 811.398438 390.082031 811.171875 390.980469 C 810.945312 391.878906 810.675781 392.777344 810.363281 393.679688 C 810.054688 394.578125 809.699219 395.472656 809.308594 396.367188 C 808.914062 397.257812 808.484375 398.140625 808.015625 399.015625 C 807.542969 399.890625 807.039062 400.753906 806.496094 401.605469 C 805.953125 402.457031 805.375 403.289062 804.765625 404.109375 C 804.152344 404.925781 803.511719 405.722656 802.839844 406.5 C 802.164062 407.277344 801.464844 408.027344 800.738281 408.757812 C 800.007812 409.484375 799.257812 410.183594 798.480469 410.859375 C 797.703125 411.53125 796.90625 412.171875 796.089844 412.785156 C 795.269531 413.394531 794.4375 413.972656 793.585938 414.515625 C 792.734375 415.058594 791.871094 415.5625 790.996094 416.035156 C 790.121094 416.503906 789.238281 416.9375 788.347656 417.328125 C 787.453125 417.722656 786.558594 418.074219 785.660156 418.382812 C 784.757812 418.695312 783.859375 418.964844 782.960938 419.191406 C 782.0625 419.417969 781.167969 419.601562 780.277344 419.742188 C 779.390625 419.882812 778.507812 419.980469 777.636719 420.03125 C 776.765625 420.085938 775.90625 420.09375 775.0625 420.058594 C 774.21875 420.023438 773.390625 419.941406 772.582031 419.816406 C 771.769531 419.695312 770.980469 419.527344 770.210938 419.316406 C 769.445312 419.105469 768.703125 418.851562 767.984375 418.558594 C 767.265625 418.261719 766.574219 417.925781 765.914062 417.546875 C 765.253906 417.171875 764.621094 416.753906 764.023438 416.296875 C 763.425781 415.84375 762.863281 415.351562 762.332031 414.820312 C 761.800781 414.292969 761.308594 413.726562 760.855469 413.128906 C 760.398438 412.53125 759.980469 411.902344 759.605469 411.238281 C 759.226562 410.578125 758.890625 409.886719 758.59375 409.167969 C 758.300781 408.453125 758.046875 407.707031 757.835938 406.941406 C 757.625 406.171875 757.457031 405.382812 757.335938 404.574219 C 757.210938 403.761719 757.132812 402.933594 757.09375 402.089844 C 757.058594 401.246094 757.066406 400.386719 757.121094 399.515625 C 757.171875 398.644531 757.269531 397.765625 757.410156 396.875 C 757.550781 395.984375 757.734375 395.089844 757.960938 394.191406 C 758.1875 393.292969 758.457031 392.394531 758.769531 391.492188 C 759.078125 390.59375 759.429688 389.699219 759.824219 388.804688 C 760.214844 387.914062 760.648438 387.03125 761.117188 386.15625 C 761.585938 385.28125 762.09375 384.417969 762.636719 383.566406 C 763.179688 382.714844 763.757812 381.882812 764.367188 381.0625 C 764.980469 380.246094 765.621094 379.449219 766.292969 378.671875 C 766.964844 377.898438 767.667969 377.144531 768.394531 376.414062 C 769.125 375.6875 769.875 374.988281 770.652344 374.3125 C 771.429688 373.640625 772.226562 373 773.042969 372.390625 C 773.859375 371.777344 774.695312 371.199219 775.546875 370.65625 C 776.394531 370.113281 777.257812 369.609375 778.136719 369.136719 C 779.011719 368.667969 779.894531 368.238281 780.785156 367.84375 C 781.675781 367.453125 782.574219 367.097656 783.472656 366.789062 C 784.371094 366.476562 785.273438 366.207031 786.171875 365.980469 C 787.070312 365.753906 787.964844 365.570312 788.851562 365.429688 C 789.742188 365.289062 790.625 365.191406 791.496094 365.140625 C 792.367188 365.085938 793.222656 365.078125 794.070312 365.113281 C 794.914062 365.152344 795.742188 365.230469 796.550781 365.355469 C 797.363281 365.476562 798.152344 365.644531 798.917969 365.855469 C 799.6875 366.066406 800.429688 366.320312 801.148438 366.613281 C 801.867188 366.910156 802.554688 367.246094 803.21875 367.625 C 803.878906 368 804.507812 368.417969 805.109375 368.875 C 805.707031 369.328125 806.269531 369.820312 806.800781 370.351562 Z M 806.800781 370.351562 " fill-opacity="1" fill-rule="nonzero"/><path fill="#ffbd59" d="M 754.429688 329.707031 C 755.144531 329.921875 755.847656 330.175781 756.539062 330.476562 C 757.226562 330.777344 757.898438 331.117188 758.550781 331.496094 C 759.203125 331.878906 759.835938 332.296875 760.445312 332.753906 C 761.054688 333.214844 761.644531 333.710938 762.207031 334.242188 C 762.769531 334.773438 763.304688 335.339844 763.816406 335.9375 C 764.324219 336.539062 764.804688 337.171875 765.257812 337.832031 C 765.707031 338.496094 766.128906 339.1875 766.519531 339.90625 C 766.90625 340.625 767.261719 341.367188 767.585938 342.136719 C 767.910156 342.902344 768.195312 343.691406 768.449219 344.503906 C 768.703125 345.3125 768.921875 346.140625 769.101562 346.984375 C 769.285156 347.828125 769.429688 348.683594 769.539062 349.554688 C 769.644531 350.421875 769.71875 351.300781 769.75 352.1875 C 769.785156 353.074219 769.78125 353.96875 769.738281 354.863281 C 769.695312 355.757812 769.617188 356.65625 769.503906 357.550781 C 769.386719 358.449219 769.234375 359.339844 769.042969 360.230469 C 768.855469 361.117188 768.628906 361.996094 768.371094 362.867188 C 768.109375 363.738281 767.8125 364.597656 767.484375 365.445312 C 767.152344 366.289062 766.789062 367.117188 766.394531 367.929688 C 766 368.746094 765.570312 369.535156 765.113281 370.308594 C 764.65625 371.078125 764.167969 371.824219 763.652344 372.546875 C 763.136719 373.269531 762.59375 373.964844 762.027344 374.632812 C 761.457031 375.300781 760.867188 375.9375 760.25 376.542969 C 759.636719 377.144531 759 377.71875 758.34375 378.253906 C 757.6875 378.792969 757.011719 379.292969 756.320312 379.757812 C 755.628906 380.21875 754.921875 380.644531 754.203125 381.03125 C 753.480469 381.417969 752.75 381.765625 752.007812 382.070312 C 751.265625 382.375 750.519531 382.640625 749.761719 382.859375 C 749.007812 383.082031 748.246094 383.257812 747.484375 383.394531 C 746.722656 383.53125 745.960938 383.621094 745.199219 383.667969 C 744.433594 383.714844 743.675781 383.71875 742.921875 383.675781 C 742.167969 383.636719 741.421875 383.550781 740.679688 383.421875 C 739.941406 383.296875 739.210938 383.125 738.496094 382.910156 C 737.777344 382.695312 737.074219 382.4375 736.386719 382.136719 C 735.699219 381.839844 735.027344 381.5 734.375 381.117188 C 733.722656 380.738281 733.089844 380.316406 732.480469 379.859375 C 731.867188 379.398438 731.28125 378.90625 730.71875 378.375 C 730.15625 377.839844 729.617188 377.273438 729.109375 376.675781 C 728.597656 376.074219 728.117188 375.441406 727.667969 374.78125 C 727.214844 374.117188 726.796875 373.425781 726.40625 372.707031 C 726.015625 371.988281 725.660156 371.246094 725.339844 370.476562 C 725.015625 369.710938 724.726562 368.921875 724.472656 368.113281 C 724.21875 367.300781 724.003906 366.476562 723.820312 365.632812 C 723.640625 364.789062 723.496094 363.929688 723.386719 363.0625 C 723.277344 362.191406 723.207031 361.3125 723.171875 360.425781 C 723.140625 359.539062 723.144531 358.648438 723.183594 357.75 C 723.226562 356.855469 723.304688 355.957031 723.421875 355.0625 C 723.539062 354.164062 723.691406 353.273438 723.878906 352.386719 C 724.070312 351.496094 724.292969 350.617188 724.554688 349.746094 C 724.816406 348.875 725.109375 348.015625 725.441406 347.171875 C 725.769531 346.324219 726.132812 345.496094 726.53125 344.683594 C 726.925781 343.871094 727.351562 343.078125 727.8125 342.308594 C 728.269531 341.535156 728.753906 340.789062 729.269531 340.066406 C 729.785156 339.34375 730.328125 338.648438 730.898438 337.980469 C 731.464844 337.3125 732.058594 336.679688 732.671875 336.074219 C 733.289062 335.46875 733.925781 334.898438 734.582031 334.359375 C 735.238281 333.824219 735.914062 333.320312 736.605469 332.859375 C 737.296875 332.394531 738.003906 331.96875 738.722656 331.582031 C 739.441406 331.195312 740.171875 330.847656 740.914062 330.542969 C 741.65625 330.238281 742.40625 329.976562 743.160156 329.753906 C 743.917969 329.53125 744.675781 329.355469 745.4375 329.21875 C 746.203125 329.085938 746.964844 328.992188 747.726562 328.945312 C 748.488281 328.898438 749.246094 328.894531 750 328.9375 C 750.757812 328.976562 751.503906 329.0625 752.242188 329.191406 C 752.984375 329.320312 753.710938 329.492188 754.429688 329.707031 Z M 754.429688 329.707031 " fill-opacity="1" fill-rule="nonzero"/><path fill="#ffbd59" d="M 806.570312 251.25 C 769.410156 243.898438 737.148438 258.191406 719.996094 289.636719 C 702.84375 258.601562 670.992188 243.898438 633.421875 251.25 C 586.867188 260.640625 539.5 305.5625 541.539062 364.367188 C 545.214844 471.359375 696.3125 557.117188 717.953125 565.691406 C 718.773438 566.101562 719.589844 566.101562 719.996094 566.101562 C 720.40625 566.101562 721.628906 566.101562 722.039062 565.691406 C 743.273438 557.117188 894.777344 471.359375 898.453125 364.367188 C 900.496094 305.5625 853.125 260.640625 806.570312 251.25 Z M 886.203125 363.960938 C 883.34375 459.515625 746.539062 540.78125 719.996094 553.03125 C 693.453125 540.78125 556.648438 459.515625 553.792969 363.960938 C 552.15625 311.6875 594.21875 271.667969 636.28125 263.5 C 642 262.277344 647.308594 261.867188 652.617188 261.867188 C 681.203125 261.867188 703.660156 277.792969 714.28125 306.789062 C 715.097656 309.238281 717.546875 310.871094 719.996094 310.871094 C 722.445312 310.871094 724.898438 309.238281 725.714844 306.789062 C 738.78125 272.484375 767.777344 256.558594 804.121094 263.910156 C 845.773438 271.667969 888.242188 311.6875 886.203125 363.960938 Z M 886.203125 363.960938 " fill-opacity="1" fill-rule="nonzero"/></svg>