<svg xmlns="http://www.w3.org/2000/svg" xmlns:xlink="http://www.w3.org/1999/xlink" width="1920" zoomAndPan="magnify" viewBox="0 0 1440 809.999993" height="1080" preserveAspectRatio="xMidYMid meet" version="1.0"><defs><clipPath id="2d5e36120c"><path d="M 113.785156 134.628906 L 603.886719 134.628906 L 603.886719 675.332031 L 113.785156 675.332031 Z M 113.785156 134.628906 " clip-rule="nonzero"/></clipPath><clipPath id="71a81aa95a"><path d="M 604.027344 351.417969 L 905.90625 351.417969 L 905.90625 675.417969 L 604.027344 675.417969 Z M 604.027344 351.417969 " clip-rule="nonzero"/></clipPath></defs><path fill="#ffbd59" d="M 518.21875 274.027344 L 511.640625 274.027344 L 511.640625 323.535156 C 511.640625 329.035156 507.179688 333.5 501.679688 333.5 C 496.179688 333.5 491.714844 329.035156 491.714844 323.535156 L 491.714844 274.027344 L 485.265625 274.027344 C 479.765625 274.027344 475.304688 269.5625 475.304688 264.0625 C 475.304688 258.5625 479.765625 254.101562 485.265625 254.101562 L 518.21875 254.101562 C 523.71875 254.101562 528.179688 258.5625 528.179688 264.0625 C 528.179688 269.5625 523.71875 274.027344 518.21875 274.027344 Z M 444.457031 307.59375 C 442.851562 307.59375 440.375 307.605469 437.8125 307.613281 L 437.8125 323.535156 C 437.8125 329.035156 433.347656 333.5 427.847656 333.5 C 422.347656 333.5 417.886719 329.035156 417.886719 323.535156 L 417.886719 264.0625 C 417.886719 258.5625 422.347656 254.101562 427.847656 254.101562 L 444.457031 254.101562 C 459.414062 254.101562 471.589844 266.09375 471.589844 280.84375 C 471.589844 295.589844 459.414062 307.59375 444.457031 307.59375 Z M 370.28125 333.5 C 348.339844 333.5 330.492188 315.683594 330.492188 293.792969 C 330.492188 271.902344 348.339844 254.101562 370.28125 254.101562 C 392.21875 254.101562 410.0625 271.902344 410.0625 293.792969 C 410.0625 315.683594 392.21875 333.5 370.28125 333.5 Z M 291.984375 332.484375 C 287.289062 332.570312 275.582031 332.613281 275.089844 332.621094 L 275.050781 332.621094 C 272.417969 332.621094 269.898438 331.574219 268.03125 329.722656 C 266.148438 327.863281 265.09375 325.332031 265.089844 322.691406 C 265.089844 322.691406 265.007812 301.765625 265.007812 293.734375 C 265.007812 287.148438 264.972656 264.957031 264.972656 264.957031 C 264.964844 262.316406 266.011719 259.777344 267.878906 257.894531 C 269.75 256.03125 272.289062 254.976562 274.933594 254.976562 L 291.324219 254.976562 C 310.957031 254.976562 324.667969 270.9375 324.667969 293.792969 C 324.667969 315.886719 310.921875 332.152344 291.984375 332.484375 Z M 250.085938 332.851562 C 248.929688 333.289062 247.734375 333.5 246.5625 333.5 C 242.542969 333.5 238.75 331.046875 237.242188 327.0625 L 234.148438 318.894531 L 211.902344 318.894531 L 208.773438 327.078125 C 206.808594 332.226562 201.054688 334.800781 195.910156 332.84375 C 190.773438 330.871094 188.195312 325.121094 190.160156 319.976562 L 212.558594 261.34375 C 212.585938 261.273438 212.617188 261.195312 212.652344 261.113281 C 214.398438 256.851562 218.507812 254.101562 223.113281 254.101562 L 223.121094 254.101562 C 227.722656 254.101562 231.824219 256.851562 233.578125 261.105469 C 233.617188 261.195312 233.652344 261.28125 233.679688 261.363281 L 255.878906 320 C 257.828125 325.148438 255.238281 330.898438 250.085938 332.851562 Z M 546.234375 209.355469 L 171.445312 209.355469 L 171.445312 371.308594 L 546.234375 371.308594 L 546.234375 209.355469 " fill-opacity="1" fill-rule="nonzero"/><path fill="#ffbd59" d="M 444.457031 274.027344 L 437.8125 274.027344 L 437.8125 287.6875 C 440.375 287.679688 442.851562 287.664062 444.457031 287.664062 C 448.363281 287.664062 451.660156 284.539062 451.660156 280.84375 C 451.660156 277.144531 448.363281 274.027344 444.457031 274.027344 " fill-opacity="1" fill-rule="nonzero"/><path fill="#ffbd59" d="M 370.28125 274.027344 C 359.332031 274.027344 350.421875 282.894531 350.421875 293.792969 C 350.421875 304.695312 359.332031 313.574219 370.28125 313.574219 C 381.238281 313.574219 390.136719 304.695312 390.136719 293.792969 C 390.136719 282.894531 381.238281 274.027344 370.28125 274.027344 " fill-opacity="1" fill-rule="nonzero"/><path fill="#ffbd59" d="M 219.515625 298.964844 L 226.609375 298.964844 L 223.074219 289.640625 Z M 219.515625 298.964844 " fill-opacity="1" fill-rule="nonzero"/><path fill="#ffbd59" d="M 291.324219 274.902344 L 284.910156 274.902344 C 284.925781 281.699219 284.9375 290.097656 284.9375 293.734375 C 284.9375 298.050781 284.957031 306.117188 284.980469 312.636719 C 287.550781 312.613281 290.042969 312.59375 291.632812 312.5625 C 300.691406 312.40625 304.742188 303.019531 304.742188 293.792969 C 304.742188 289.359375 303.769531 274.902344 291.324219 274.902344 " fill-opacity="1" fill-rule="nonzero"/><path fill="#ffbd59" d="M 370.617188 169.859375 L 347.054688 169.859375 L 347.054688 189.429688 L 370.617188 189.429688 L 370.617188 169.859375 " fill-opacity="1" fill-rule="nonzero"/><path fill="#ffbd59" d="M 468.726562 456.023438 L 443.492188 481.265625 C 441.011719 483.738281 437.761719 484.980469 434.503906 484.980469 C 431.257812 484.980469 428.007812 483.742188 425.535156 481.265625 L 400.292969 456.023438 C 389.269531 445 389.269531 427.074219 400.292969 416.054688 C 409.546875 406.796875 423.695312 405.316406 434.503906 411.625 C 445.324219 405.316406 459.472656 406.796875 468.726562 416.054688 C 479.75 427.074219 479.75 445 468.726562 456.023438 Z M 363.140625 436.417969 C 368.644531 436.417969 373.097656 440.878906 373.097656 446.378906 C 373.097656 451.882812 368.644531 456.339844 363.140625 456.339844 L 350.96875 456.339844 L 350.96875 464.773438 L 364.902344 464.773438 C 370.40625 464.773438 374.863281 469.234375 374.863281 474.734375 C 374.863281 480.238281 370.40625 484.699219 364.902344 484.699219 L 341.007812 484.699219 C 335.507812 484.699219 331.042969 480.238281 331.042969 474.734375 L 331.042969 418.03125 C 331.042969 412.527344 335.507812 408.066406 341.007812 408.066406 L 364.902344 408.066406 C 370.40625 408.066406 374.863281 412.527344 374.863281 418.03125 C 374.863281 423.535156 370.40625 427.992188 364.902344 427.992188 L 350.96875 427.992188 L 350.96875 436.417969 Z M 317.925781 484.339844 C 312.523438 485.371094 307.304688 481.832031 306.269531 476.425781 L 302.46875 456.535156 L 296.679688 476.839844 C 296.652344 476.953125 296.613281 477.066406 296.578125 477.179688 C 295.074219 481.8125 290.796875 484.9375 285.929688 484.960938 L 285.863281 484.960938 C 281.023438 484.960938 276.742188 481.886719 275.203125 477.289062 C 275.164062 477.171875 275.121094 477.054688 275.089844 476.933594 L 269.089844 456.609375 L 265.527344 476.324219 C 264.554688 481.734375 259.371094 485.332031 253.953125 484.355469 C 248.546875 483.378906 244.941406 478.199219 245.921875 472.785156 L 255.976562 417.054688 C 255.984375 417.011719 256 416.976562 256.003906 416.941406 C 256.964844 411.921875 261.199219 408.183594 266.300781 407.835938 C 271.398438 407.488281 276.097656 410.636719 277.726562 415.476562 C 277.765625 415.597656 277.800781 415.71875 277.839844 415.832031 L 285.722656 442.578125 L 293.320312 415.929688 C 293.359375 415.816406 293.390625 415.699219 293.429688 415.582031 C 295.011719 410.726562 299.65625 407.527344 304.769531 407.828125 C 309.871094 408.109375 314.140625 411.8125 315.167969 416.8125 C 315.171875 416.851562 315.179688 416.894531 315.1875 416.929688 L 325.839844 472.679688 C 326.875 478.089844 323.332031 483.300781 317.925781 484.339844 Z M 506.382812 391.238281 L 211.292969 391.238281 L 211.292969 507.746094 L 506.382812 507.746094 L 506.382812 391.238281 " fill-opacity="1" fill-rule="nonzero"/><path fill="#ffbd59" d="M 442.851562 430.148438 L 441.554688 431.449219 C 437.660156 435.347656 431.355469 435.347656 427.472656 431.449219 L 426.167969 430.148438 C 424.539062 428.527344 422.40625 427.710938 420.277344 427.710938 C 418.136719 427.710938 416.003906 428.527344 414.375 430.148438 C 411.132812 433.398438 411.132812 438.683594 414.375 441.9375 L 434.515625 462.0625 L 454.640625 441.9375 C 457.886719 438.683594 457.886719 433.398438 454.640625 430.148438 C 451.390625 426.902344 446.101562 426.902344 442.851562 430.148438 " fill-opacity="1" fill-rule="nonzero"/><path fill="#ffbd59" d="M 347.054688 640.132812 L 370.617188 640.132812 L 370.617188 527.671875 L 347.054688 527.671875 L 347.054688 640.132812 " fill-opacity="1" fill-rule="nonzero"/><g clip-path="url(#2d5e36120c)"><path fill="#ffbd59" d="M 578.625 660.058594 L 139.050781 660.058594 C 133.542969 660.058594 129.089844 655.597656 129.089844 650.097656 C 129.089844 644.597656 133.542969 640.132812 139.050781 640.132812 L 327.125 640.132812 L 327.125 527.671875 L 201.332031 527.671875 C 195.828125 527.671875 191.371094 523.214844 191.371094 517.707031 L 191.371094 391.238281 L 161.480469 391.238281 C 155.976562 391.238281 151.519531 386.773438 151.519531 381.273438 L 151.519531 199.390625 C 151.519531 193.890625 155.976562 189.429688 161.480469 189.429688 L 327.125 189.429688 L 327.125 159.894531 C 327.125 154.394531 331.578125 149.933594 337.09375 149.933594 L 380.578125 149.933594 C 386.09375 149.933594 390.546875 154.394531 390.546875 159.894531 L 390.546875 189.429688 L 556.195312 189.429688 C 561.710938 189.429688 566.164062 193.890625 566.164062 199.390625 L 566.164062 381.273438 C 566.164062 386.773438 561.710938 391.238281 556.195312 391.238281 L 526.308594 391.238281 L 526.308594 517.707031 C 526.308594 523.214844 521.851562 527.671875 516.34375 527.671875 L 390.546875 527.671875 L 390.546875 640.132812 L 578.625 640.132812 C 584.132812 640.132812 588.589844 644.597656 588.589844 650.097656 C 588.589844 655.597656 584.125 660.058594 578.625 660.058594 Z M 578.625 624.832031 L 405.851562 624.832031 L 405.851562 542.980469 L 516.34375 542.980469 C 530.269531 542.980469 541.609375 531.644531 541.609375 517.714844 L 541.609375 406.542969 L 556.195312 406.542969 C 570.128906 406.542969 581.464844 395.207031 581.464844 381.273438 L 581.464844 199.390625 C 581.464844 185.453125 570.128906 174.121094 556.195312 174.121094 L 405.851562 174.121094 L 405.851562 159.894531 C 405.851562 145.964844 394.511719 134.628906 380.578125 134.628906 L 337.09375 134.628906 C 323.15625 134.628906 311.820312 145.964844 311.820312 159.894531 L 311.820312 174.121094 L 161.480469 174.121094 C 147.546875 174.121094 136.210938 185.453125 136.210938 199.390625 L 136.210938 381.273438 C 136.210938 395.207031 147.546875 406.542969 161.480469 406.542969 L 176.066406 406.542969 L 176.066406 517.714844 C 176.066406 531.644531 187.402344 542.980469 201.332031 542.980469 L 311.820312 542.980469 L 311.820312 624.832031 L 139.050781 624.832031 C 125.117188 624.832031 113.785156 636.171875 113.785156 650.097656 C 113.785156 664.027344 125.117188 675.367188 139.050781 675.367188 L 578.625 675.367188 C 592.554688 675.367188 603.890625 664.027344 603.890625 650.097656 C 603.890625 636.171875 592.554688 624.832031 578.625 624.832031 " fill-opacity="1" fill-rule="nonzero"/></g><path fill="#ffbd59" d="M 716.871094 425.804688 L 721.953125 425.804688 C 725.25 425.804688 727.921875 428.472656 727.921875 431.773438 L 727.921875 445.601562 C 727.921875 448.902344 725.25 451.570312 721.953125 451.570312 C 718.65625 451.570312 715.984375 448.902344 715.984375 445.601562 L 715.984375 437.679688 C 713.105469 437.25 710.902344 434.769531 710.902344 431.773438 C 710.902344 428.472656 713.574219 425.804688 716.871094 425.804688 Z M 732.910156 491.03125 L 732.910156 494.421875 C 732.910156 498.816406 736.519531 502.394531 740.953125 502.394531 C 745.386719 502.394531 748.996094 498.816406 748.996094 494.421875 L 748.996094 493.480469 C 744.65625 492.171875 740.804688 489.441406 738.125 485.671875 C 734.78125 480.953125 734.351562 474.835938 737.003906 469.703125 C 739.664062 464.550781 744.933594 461.34375 750.753906 461.34375 L 759.179688 461.34375 C 764.996094 461.34375 770.265625 464.550781 772.929688 469.703125 C 775.582031 474.835938 775.152344 480.953125 771.8125 485.671875 C 769.125 489.441406 765.277344 492.171875 760.933594 493.480469 L 760.933594 494.421875 C 760.933594 498.816406 764.542969 502.394531 768.976562 502.394531 C 773.410156 502.394531 777.019531 498.816406 777.019531 494.421875 L 777.019531 491.03125 C 777.019531 487.730469 779.695312 485.0625 782.988281 485.0625 C 786.289062 485.0625 788.957031 487.730469 788.957031 491.03125 L 788.957031 494.421875 C 788.957031 505.402344 780 514.332031 768.976562 514.332031 C 763.527344 514.332031 758.574219 512.144531 754.964844 508.601562 C 751.355469 512.144531 746.410156 514.332031 740.953125 514.332031 C 729.9375 514.332031 720.972656 505.402344 720.972656 494.421875 L 720.972656 491.03125 C 720.972656 487.730469 723.640625 485.0625 726.941406 485.0625 C 730.238281 485.0625 732.910156 487.730469 732.910156 491.03125 Z M 782.011719 431.773438 C 782.011719 428.472656 784.683594 425.804688 787.980469 425.804688 L 793.058594 425.804688 C 796.363281 425.804688 799.03125 428.472656 799.03125 431.773438 C 799.03125 434.769531 796.824219 437.25 793.949219 437.679688 L 793.949219 445.601562 C 793.949219 448.902344 791.273438 451.570312 787.980469 451.570312 C 784.683594 451.570312 782.011719 448.902344 782.011719 445.601562 Z M 713.6875 522.664062 L 796.25 522.664062 C 816.253906 522.664062 832.535156 506.484375 832.535156 486.589844 C 832.535156 480.601562 831.027344 474.675781 828.179688 469.445312 C 825.851562 465.164062 823.9375 462.84375 822.246094 460.785156 C 818.199219 455.867188 815.90625 452.523438 815.90625 440.976562 L 815.90625 433.128906 C 815.90625 399.714844 788.570312 372.53125 754.964844 372.53125 C 721.363281 372.53125 694.027344 399.714844 694.027344 433.128906 L 694.027344 440.976562 C 694.027344 452.523438 691.734375 455.867188 687.6875 460.785156 C 685.996094 462.84375 684.082031 465.164062 681.75 469.445312 C 678.902344 474.675781 677.398438 480.601562 677.398438 486.589844 C 677.398438 506.484375 693.679688 522.664062 713.6875 522.664062 " fill-opacity="1" fill-rule="nonzero"/><path fill="#ffbd59" d="M 827.847656 440.976562 C 827.847656 448.804688 828.6875 449.820312 831.464844 453.199219 C 833.292969 455.414062 835.792969 458.453125 838.664062 463.730469 C 839.03125 464.40625 839.382812 465.085938 839.714844 465.773438 C 850.316406 465.523438 850.875 464.023438 850.875 460.097656 L 850.875 426.515625 C 850.875 402.355469 831.238281 382.664062 807 382.382812 C 819.886719 395.476562 827.847656 413.394531 827.847656 433.128906 L 827.847656 440.976562 " fill-opacity="1" fill-rule="nonzero"/><path fill="#ffbd59" d="M 754.964844 482.429688 C 757.828125 482.429688 760.417969 481.09375 762.070312 478.757812 C 763.167969 477.21875 762.613281 475.742188 762.320312 475.183594 C 762.027344 474.613281 761.128906 473.285156 759.179688 473.285156 L 750.757812 473.285156 C 748.804688 473.285156 747.90625 474.613281 747.609375 475.183594 C 747.324219 475.742188 746.765625 477.21875 747.863281 478.757812 C 749.515625 481.09375 752.105469 482.429688 754.964844 482.429688 " fill-opacity="1" fill-rule="nonzero"/><g clip-path="url(#71a81aa95a)"><path fill="#ffbd59" d="M 894.996094 552.71875 C 893.832031 553.890625 892.296875 554.476562 890.761719 554.476562 C 889.242188 554.476562 887.71875 553.898438 886.554688 552.738281 L 876.386719 542.628906 L 876.386719 660.28125 C 876.386719 663.574219 873.71875 666.25 870.417969 666.25 L 639.515625 666.25 C 636.214844 666.25 633.542969 663.574219 633.542969 660.28125 L 633.542969 542.628906 L 623.378906 552.738281 C 621.042969 555.066406 617.261719 555.054688 614.933594 552.71875 C 612.609375 550.378906 612.621094 546.597656 614.957031 544.277344 L 634.941406 524.398438 C 636.054688 523.289062 637.570312 522.664062 639.148438 522.664062 L 681.890625 522.664062 C 671.824219 513.855469 665.460938 500.957031 665.460938 486.589844 C 665.460938 483.257812 665.8125 479.941406 666.496094 476.699219 C 655.316406 473.457031 647.121094 463.164062 647.121094 451 L 647.121094 426.515625 C 647.121094 395.597656 672.390625 370.445312 703.457031 370.445312 L 718.320312 370.445312 C 729.09375 364.183594 741.617188 360.589844 754.964844 360.589844 C 768.320312 360.589844 780.847656 364.183594 791.613281 370.445312 L 806.480469 370.445312 C 837.542969 370.445312 862.8125 395.597656 862.8125 426.515625 L 862.8125 460.097656 C 862.8125 469.855469 857.429688 474.023438 852.910156 475.800781 C 850.097656 476.90625 846.914062 477.390625 843.617188 477.597656 C 844.1875 480.554688 844.472656 483.570312 844.472656 486.589844 C 844.472656 500.957031 838.109375 513.855469 828.042969 522.664062 L 870.78125 522.664062 C 872.363281 522.664062 873.875 523.289062 874.992188 524.398438 L 894.972656 544.277344 C 897.3125 546.597656 897.324219 550.378906 894.996094 552.71875 Z M 901.4375 537.777344 L 881.472656 517.917969 C 878.621094 515.0625 874.824219 513.488281 870.78125 513.488281 L 846.875 513.488281 C 851.273438 505.292969 853.640625 496.070312 853.640625 486.589844 C 853.640625 486.136719 853.636719 485.683594 853.625 485.234375 C 854.539062 484.96875 855.417969 484.667969 856.269531 484.332031 C 866.257812 480.40625 871.984375 471.570312 871.984375 460.097656 L 871.984375 426.515625 C 871.984375 390.546875 842.597656 361.277344 806.480469 361.277344 L 794.007812 361.277344 C 782.070312 354.820312 768.625 351.417969 754.964844 351.417969 C 741.3125 351.417969 727.871094 354.820312 715.925781 361.277344 L 703.457031 361.277344 C 667.335938 361.277344 637.953125 390.546875 637.953125 426.515625 L 637.953125 451 C 637.953125 464.136719 645.261719 476.113281 656.449219 482.371094 C 656.339844 483.777344 656.289062 485.1875 656.289062 486.589844 C 656.289062 496.070312 658.664062 505.292969 663.058594 513.488281 L 639.148438 513.488281 C 635.113281 513.488281 631.3125 515.0625 628.476562 517.902344 L 608.496094 537.769531 C 605.628906 540.625 604.039062 544.421875 604.027344 548.460938 C 604.015625 552.507812 605.578125 556.3125 608.429688 559.183594 C 611.292969 562.0625 615.105469 563.648438 619.164062 563.648438 C 620.96875 563.648438 622.726562 563.332031 624.375 562.730469 L 624.375 660.28125 C 624.375 668.625 631.164062 675.417969 639.515625 675.417969 L 870.417969 675.417969 C 878.765625 675.417969 885.558594 668.625 885.558594 660.28125 L 885.558594 562.734375 C 887.207031 563.332031 888.960938 563.648438 890.761719 563.648438 C 894.824219 563.648438 898.632812 562.0625 901.5 559.183594 C 904.351562 556.320312 905.914062 552.507812 905.902344 548.460938 C 905.890625 544.414062 904.304688 540.617188 901.4375 537.777344 " fill-opacity="1" fill-rule="nonzero"/></g><path fill="#ffbd59" d="M 754.964844 614.574219 L 776.839844 592.722656 C 779.03125 590.535156 780.234375 587.625 780.234375 584.535156 C 780.234375 581.441406 779.03125 578.535156 776.839844 576.347656 C 772.3125 571.832031 764.960938 571.832031 760.4375 576.347656 L 759.1875 577.597656 C 756.855469 579.925781 753.078125 579.925781 750.75 577.597656 L 749.496094 576.347656 C 747.238281 574.089844 744.265625 572.960938 741.296875 572.960938 C 738.324219 572.960938 735.351562 574.089844 733.089844 576.347656 C 730.90625 578.535156 729.695312 581.441406 729.695312 584.535156 C 729.695312 587.625 730.90625 590.535156 733.089844 592.722656 L 754.964844 614.574219 " fill-opacity="1" fill-rule="nonzero"/><path fill="#ffbd59" d="M 682.089844 440.976562 L 682.089844 433.128906 C 682.089844 413.394531 690.042969 395.476562 702.933594 382.382812 C 678.695312 382.664062 659.0625 402.355469 659.0625 426.515625 L 659.0625 451 C 659.0625 457.945312 663.898438 463.792969 670.40625 465.382812 C 670.6875 464.828125 670.972656 464.28125 671.269531 463.730469 C 674.140625 458.453125 676.648438 455.414062 678.46875 453.199219 C 681.25 449.820312 682.089844 448.804688 682.089844 440.976562 " fill-opacity="1" fill-rule="nonzero"/><path fill="#ffbd59" d="M 724.652344 567.902344 C 732.894531 559.664062 745.78125 558.828125 754.964844 565.382812 C 764.152344 558.828125 777.035156 559.667969 785.28125 567.902344 C 789.726562 572.339844 792.175781 578.25 792.175781 584.53125 C 792.175781 590.816406 789.726562 596.722656 785.28125 601.167969 L 761.035156 625.382812 C 759.367188 627.058594 757.167969 627.894531 754.964844 627.894531 C 752.769531 627.894531 750.574219 627.058594 748.894531 625.382812 L 724.652344 601.167969 C 720.207031 596.722656 717.761719 590.816406 717.761719 584.53125 C 717.761719 578.25 720.207031 572.339844 724.652344 567.902344 Z M 645.484375 654.308594 L 864.449219 654.308594 L 864.449219 534.601562 L 645.484375 534.601562 L 645.484375 654.308594 " fill-opacity="1" fill-rule="nonzero"/></svg>