<svg xmlns="http://www.w3.org/2000/svg" xmlns:xlink="http://www.w3.org/1999/xlink" width="500" zoomAndPan="magnify" viewBox="0 0 375 374.999991" height="500" preserveAspectRatio="xMidYMid meet" version="1.0"><defs><g/><linearGradient x1="0" gradientTransform="matrix(0.75, 0, 0, 0.75, 0.0000045, 0)" y1="0" x2="499.999979" gradientUnits="userSpaceOnUse" y2="0" id="168b52bce7"><stop stop-opacity="1" stop-color="rgb(100%, 39.99939%, 76.899719%)" offset="0"/><stop stop-opacity="1" stop-color="rgb(100%, 40.182495%, 76.734924%)" offset="0.0078125"/><stop stop-opacity="1" stop-color="rgb(100%, 40.550232%, 76.40686%)" offset="0.015625"/><stop stop-opacity="1" stop-color="rgb(100%, 40.917969%, 76.078796%)" offset="0.0234375"/><stop stop-opacity="1" stop-color="rgb(100%, 41.287231%, 75.750732%)" offset="0.03125"/><stop stop-opacity="1" stop-color="rgb(100%, 41.654968%, 75.422668%)" offset="0.0390625"/><stop stop-opacity="1" stop-color="rgb(100%, 42.022705%, 75.093079%)" offset="0.046875"/><stop stop-opacity="1" stop-color="rgb(100%, 42.390442%, 74.765015%)" offset="0.0546875"/><stop stop-opacity="1" stop-color="rgb(100%, 42.758179%, 74.436951%)" offset="0.0625"/><stop stop-opacity="1" stop-color="rgb(100%, 43.125916%, 74.108887%)" offset="0.0703125"/><stop stop-opacity="1" stop-color="rgb(100%, 43.493652%, 73.780823%)" offset="0.078125"/><stop stop-opacity="1" stop-color="rgb(100%, 43.862915%, 73.452759%)" offset="0.0859375"/><stop stop-opacity="1" stop-color="rgb(100%, 44.230652%, 73.124695%)" offset="0.09375"/><stop stop-opacity="1" stop-color="rgb(100%, 44.598389%, 72.796631%)" offset="0.101562"/><stop stop-opacity="1" stop-color="rgb(100%, 44.966125%, 72.468567%)" offset="0.109375"/><stop stop-opacity="1" stop-color="rgb(100%, 45.333862%, 72.140503%)" offset="0.117188"/><stop stop-opacity="1" stop-color="rgb(100%, 45.701599%, 71.812439%)" offset="0.125"/><stop stop-opacity="1" stop-color="rgb(100%, 46.069336%, 71.484375%)" offset="0.132812"/><stop stop-opacity="1" stop-color="rgb(100%, 46.438599%, 71.156311%)" offset="0.140625"/><stop stop-opacity="1" stop-color="rgb(100%, 46.806335%, 70.828247%)" offset="0.148437"/><stop stop-opacity="1" stop-color="rgb(100%, 47.174072%, 70.500183%)" offset="0.15625"/><stop stop-opacity="1" stop-color="rgb(100%, 47.541809%, 70.172119%)" offset="0.164062"/><stop stop-opacity="1" stop-color="rgb(100%, 47.909546%, 69.844055%)" offset="0.171875"/><stop stop-opacity="1" stop-color="rgb(100%, 48.277283%, 69.515991%)" offset="0.179687"/><stop stop-opacity="1" stop-color="rgb(100%, 48.646545%, 69.187927%)" offset="0.1875"/><stop stop-opacity="1" stop-color="rgb(100%, 49.014282%, 68.859863%)" offset="0.195312"/><stop stop-opacity="1" stop-color="rgb(100%, 49.382019%, 68.531799%)" offset="0.203125"/><stop stop-opacity="1" stop-color="rgb(100%, 49.749756%, 68.203735%)" offset="0.210938"/><stop stop-opacity="1" stop-color="rgb(100%, 50.117493%, 67.875671%)" offset="0.21875"/><stop stop-opacity="1" stop-color="rgb(100%, 50.485229%, 67.547607%)" offset="0.226562"/><stop stop-opacity="1" stop-color="rgb(100%, 50.852966%, 67.219543%)" offset="0.234375"/><stop stop-opacity="1" stop-color="rgb(100%, 51.222229%, 66.889954%)" offset="0.242188"/><stop stop-opacity="1" stop-color="rgb(100%, 51.589966%, 66.56189%)" offset="0.25"/><stop stop-opacity="1" stop-color="rgb(100%, 51.957703%, 66.233826%)" offset="0.257812"/><stop stop-opacity="1" stop-color="rgb(100%, 52.325439%, 65.905762%)" offset="0.265625"/><stop stop-opacity="1" stop-color="rgb(100%, 52.693176%, 65.577698%)" offset="0.273437"/><stop stop-opacity="1" stop-color="rgb(100%, 53.060913%, 65.249634%)" offset="0.28125"/><stop stop-opacity="1" stop-color="rgb(100%, 53.430176%, 64.92157%)" offset="0.289062"/><stop stop-opacity="1" stop-color="rgb(100%, 53.797913%, 64.593506%)" offset="0.296875"/><stop stop-opacity="1" stop-color="rgb(100%, 54.165649%, 64.265442%)" offset="0.304687"/><stop stop-opacity="1" stop-color="rgb(100%, 54.533386%, 63.937378%)" offset="0.3125"/><stop stop-opacity="1" stop-color="rgb(100%, 54.901123%, 63.609314%)" offset="0.320312"/><stop stop-opacity="1" stop-color="rgb(100%, 55.26886%, 63.28125%)" offset="0.328125"/><stop stop-opacity="1" stop-color="rgb(100%, 55.636597%, 62.953186%)" offset="0.335937"/><stop stop-opacity="1" stop-color="rgb(100%, 56.005859%, 62.625122%)" offset="0.34375"/><stop stop-opacity="1" stop-color="rgb(100%, 56.373596%, 62.297058%)" offset="0.351562"/><stop stop-opacity="1" stop-color="rgb(100%, 56.741333%, 61.968994%)" offset="0.359375"/><stop stop-opacity="1" stop-color="rgb(100%, 57.10907%, 61.64093%)" offset="0.367187"/><stop stop-opacity="1" stop-color="rgb(100%, 57.476807%, 61.312866%)" offset="0.375"/><stop stop-opacity="1" stop-color="rgb(100%, 57.844543%, 60.984802%)" offset="0.382812"/><stop stop-opacity="1" stop-color="rgb(100%, 58.21228%, 60.656738%)" offset="0.390625"/><stop stop-opacity="1" stop-color="rgb(100%, 58.581543%, 60.328674%)" offset="0.398438"/><stop stop-opacity="1" stop-color="rgb(100%, 58.94928%, 60.00061%)" offset="0.40625"/><stop stop-opacity="1" stop-color="rgb(100%, 59.317017%, 59.672546%)" offset="0.414062"/><stop stop-opacity="1" stop-color="rgb(100%, 59.684753%, 59.344482%)" offset="0.421875"/><stop stop-opacity="1" stop-color="rgb(100%, 60.05249%, 59.016418%)" offset="0.429688"/><stop stop-opacity="1" stop-color="rgb(100%, 60.420227%, 58.686829%)" offset="0.4375"/><stop stop-opacity="1" stop-color="rgb(100%, 60.78949%, 58.358765%)" offset="0.445312"/><stop stop-opacity="1" stop-color="rgb(100%, 61.157227%, 58.030701%)" offset="0.453125"/><stop stop-opacity="1" stop-color="rgb(100%, 61.524963%, 57.702637%)" offset="0.460938"/><stop stop-opacity="1" stop-color="rgb(100%, 61.8927%, 57.374573%)" offset="0.46875"/><stop stop-opacity="1" stop-color="rgb(100%, 62.260437%, 57.046509%)" offset="0.476562"/><stop stop-opacity="1" stop-color="rgb(100%, 62.628174%, 56.718445%)" offset="0.484375"/><stop stop-opacity="1" stop-color="rgb(100%, 62.995911%, 56.390381%)" offset="0.492188"/><stop stop-opacity="1" stop-color="rgb(100%, 63.365173%, 56.062317%)" offset="0.5"/><stop stop-opacity="1" stop-color="rgb(100%, 63.73291%, 55.734253%)" offset="0.507812"/><stop stop-opacity="1" stop-color="rgb(100%, 64.100647%, 55.406189%)" offset="0.515625"/><stop stop-opacity="1" stop-color="rgb(100%, 64.468384%, 55.078125%)" offset="0.523437"/><stop stop-opacity="1" stop-color="rgb(100%, 64.836121%, 54.750061%)" offset="0.53125"/><stop stop-opacity="1" stop-color="rgb(100%, 65.203857%, 54.421997%)" offset="0.539062"/><stop stop-opacity="1" stop-color="rgb(100%, 65.57312%, 54.093933%)" offset="0.546875"/><stop stop-opacity="1" stop-color="rgb(100%, 65.940857%, 53.765869%)" offset="0.554687"/><stop stop-opacity="1" stop-color="rgb(100%, 66.308594%, 53.437805%)" offset="0.5625"/><stop stop-opacity="1" stop-color="rgb(100%, 66.676331%, 53.109741%)" offset="0.570312"/><stop stop-opacity="1" stop-color="rgb(100%, 67.044067%, 52.781677%)" offset="0.578125"/><stop stop-opacity="1" stop-color="rgb(100%, 67.411804%, 52.453613%)" offset="0.585937"/><stop stop-opacity="1" stop-color="rgb(100%, 67.779541%, 52.125549%)" offset="0.59375"/><stop stop-opacity="1" stop-color="rgb(100%, 68.148804%, 51.797485%)" offset="0.601562"/><stop stop-opacity="1" stop-color="rgb(100%, 68.516541%, 51.469421%)" offset="0.609375"/><stop stop-opacity="1" stop-color="rgb(100%, 68.884277%, 51.141357%)" offset="0.617187"/><stop stop-opacity="1" stop-color="rgb(100%, 69.252014%, 50.813293%)" offset="0.625"/><stop stop-opacity="1" stop-color="rgb(100%, 69.619751%, 50.483704%)" offset="0.632812"/><stop stop-opacity="1" stop-color="rgb(100%, 69.987488%, 50.15564%)" offset="0.640625"/><stop stop-opacity="1" stop-color="rgb(100%, 70.35675%, 49.827576%)" offset="0.648437"/><stop stop-opacity="1" stop-color="rgb(100%, 70.724487%, 49.499512%)" offset="0.65625"/><stop stop-opacity="1" stop-color="rgb(100%, 71.092224%, 49.171448%)" offset="0.664062"/><stop stop-opacity="1" stop-color="rgb(100%, 71.459961%, 48.843384%)" offset="0.671875"/><stop stop-opacity="1" stop-color="rgb(100%, 71.827698%, 48.51532%)" offset="0.679687"/><stop stop-opacity="1" stop-color="rgb(100%, 72.195435%, 48.187256%)" offset="0.6875"/><stop stop-opacity="1" stop-color="rgb(100%, 72.563171%, 47.859192%)" offset="0.695312"/><stop stop-opacity="1" stop-color="rgb(100%, 72.932434%, 47.531128%)" offset="0.703125"/><stop stop-opacity="1" stop-color="rgb(100%, 73.300171%, 47.203064%)" offset="0.710937"/><stop stop-opacity="1" stop-color="rgb(100%, 73.667908%, 46.875%)" offset="0.71875"/><stop stop-opacity="1" stop-color="rgb(100%, 74.035645%, 46.546936%)" offset="0.726562"/><stop stop-opacity="1" stop-color="rgb(100%, 74.403381%, 46.218872%)" offset="0.734375"/><stop stop-opacity="1" stop-color="rgb(100%, 74.771118%, 45.890808%)" offset="0.742187"/><stop stop-opacity="1" stop-color="rgb(100%, 75.138855%, 45.562744%)" offset="0.75"/><stop stop-opacity="1" stop-color="rgb(100%, 75.508118%, 45.23468%)" offset="0.757812"/><stop stop-opacity="1" stop-color="rgb(100%, 75.875854%, 44.906616%)" offset="0.765625"/><stop stop-opacity="1" stop-color="rgb(100%, 76.243591%, 44.578552%)" offset="0.773438"/><stop stop-opacity="1" stop-color="rgb(100%, 76.611328%, 44.250488%)" offset="0.78125"/><stop stop-opacity="1" stop-color="rgb(100%, 76.979065%, 43.922424%)" offset="0.789062"/><stop stop-opacity="1" stop-color="rgb(100%, 77.346802%, 43.59436%)" offset="0.796875"/><stop stop-opacity="1" stop-color="rgb(100%, 77.716064%, 43.266296%)" offset="0.804688"/><stop stop-opacity="1" stop-color="rgb(100%, 78.083801%, 42.938232%)" offset="0.8125"/><stop stop-opacity="1" stop-color="rgb(100%, 78.451538%, 42.610168%)" offset="0.820312"/><stop stop-opacity="1" stop-color="rgb(100%, 78.819275%, 42.280579%)" offset="0.828125"/><stop stop-opacity="1" stop-color="rgb(100%, 79.187012%, 41.952515%)" offset="0.835938"/><stop stop-opacity="1" stop-color="rgb(100%, 79.554749%, 41.624451%)" offset="0.84375"/><stop stop-opacity="1" stop-color="rgb(100%, 79.922485%, 41.296387%)" offset="0.851562"/><stop stop-opacity="1" stop-color="rgb(100%, 80.291748%, 40.968323%)" offset="0.859375"/><stop stop-opacity="1" stop-color="rgb(100%, 80.659485%, 40.640259%)" offset="0.867188"/><stop stop-opacity="1" stop-color="rgb(100%, 81.027222%, 40.312195%)" offset="0.875"/><stop stop-opacity="1" stop-color="rgb(100%, 81.394958%, 39.984131%)" offset="0.882812"/><stop stop-opacity="1" stop-color="rgb(100%, 81.762695%, 39.656067%)" offset="0.890625"/><stop stop-opacity="1" stop-color="rgb(100%, 82.130432%, 39.328003%)" offset="0.898438"/><stop stop-opacity="1" stop-color="rgb(100%, 82.499695%, 38.999939%)" offset="0.90625"/><stop stop-opacity="1" stop-color="rgb(100%, 82.867432%, 38.671875%)" offset="0.914062"/><stop stop-opacity="1" stop-color="rgb(100%, 83.235168%, 38.343811%)" offset="0.921875"/><stop stop-opacity="1" stop-color="rgb(100%, 83.602905%, 38.015747%)" offset="0.929688"/><stop stop-opacity="1" stop-color="rgb(100%, 83.970642%, 37.687683%)" offset="0.9375"/><stop stop-opacity="1" stop-color="rgb(100%, 84.338379%, 37.359619%)" offset="0.945312"/><stop stop-opacity="1" stop-color="rgb(100%, 84.706116%, 37.031555%)" offset="0.953125"/><stop stop-opacity="1" stop-color="rgb(100%, 85.075378%, 36.703491%)" offset="0.960938"/><stop stop-opacity="1" stop-color="rgb(100%, 85.443115%, 36.375427%)" offset="0.96875"/><stop stop-opacity="1" stop-color="rgb(100%, 85.810852%, 36.047363%)" offset="0.976562"/><stop stop-opacity="1" stop-color="rgb(100%, 86.178589%, 35.719299%)" offset="0.984375"/><stop stop-opacity="1" stop-color="rgb(100%, 86.546326%, 35.391235%)" offset="0.992188"/><stop stop-opacity="1" stop-color="rgb(100%, 86.914062%, 35.063171%)" offset="1"/></linearGradient><clipPath id="991b470bc0"><path d="M 72 45 L 303 45 L 303 276 L 72 276 Z M 72 45 " clip-rule="nonzero"/></clipPath><clipPath id="b034846955"><path d="M 158.433594 0 L 348.257812 131.632812 L 216.621094 321.460938 L 26.796875 189.824219 Z M 158.433594 0 " clip-rule="nonzero"/></clipPath><clipPath id="db0da40fec"><path d="M 158.433594 0 L 348.257812 131.632812 L 216.621094 321.460938 L 26.796875 189.824219 Z M 158.433594 0 " clip-rule="nonzero"/></clipPath><clipPath id="a92741eb14"><path d="M 0 144.019531 L 374.714844 144.019531 L 374.714844 311.722656 L 0 311.722656 Z M 0 144.019531 " clip-rule="nonzero"/></clipPath><linearGradient x1="0" gradientTransform="matrix(0.655097, 0, 0, 0.655097, 0.0000045, 144.019757)" y1="0" x2="571.999992" gradientUnits="userSpaceOnUse" y2="0" id="33e357e76d"><stop stop-opacity="1" stop-color="rgb(100%, 39.99939%, 76.899719%)" offset="0"/><stop stop-opacity="1" stop-color="rgb(100%, 40.182495%, 76.734924%)" offset="0.0078125"/><stop stop-opacity="1" stop-color="rgb(100%, 40.550232%, 76.40686%)" offset="0.015625"/><stop stop-opacity="1" stop-color="rgb(100%, 40.917969%, 76.078796%)" offset="0.0234375"/><stop stop-opacity="1" stop-color="rgb(100%, 41.285706%, 75.750732%)" offset="0.03125"/><stop stop-opacity="1" stop-color="rgb(100%, 41.653442%, 75.422668%)" offset="0.0390625"/><stop stop-opacity="1" stop-color="rgb(100%, 42.021179%, 75.094604%)" offset="0.046875"/><stop stop-opacity="1" stop-color="rgb(100%, 42.388916%, 74.768066%)" offset="0.0546875"/><stop stop-opacity="1" stop-color="rgb(100%, 42.756653%, 74.440002%)" offset="0.0625"/><stop stop-opacity="1" stop-color="rgb(100%, 43.12439%, 74.111938%)" offset="0.0703125"/><stop stop-opacity="1" stop-color="rgb(100%, 43.492126%, 73.783875%)" offset="0.078125"/><stop stop-opacity="1" stop-color="rgb(100%, 43.859863%, 73.455811%)" offset="0.0859375"/><stop stop-opacity="1" stop-color="rgb(100%, 44.2276%, 73.127747%)" offset="0.09375"/><stop stop-opacity="1" stop-color="rgb(100%, 44.595337%, 72.799683%)" offset="0.101562"/><stop stop-opacity="1" stop-color="rgb(100%, 44.963074%, 72.471619%)" offset="0.109375"/><stop stop-opacity="1" stop-color="rgb(100%, 45.330811%, 72.143555%)" offset="0.117188"/><stop stop-opacity="1" stop-color="rgb(100%, 45.698547%, 71.817017%)" offset="0.125"/><stop stop-opacity="1" stop-color="rgb(100%, 46.064758%, 71.488953%)" offset="0.132812"/><stop stop-opacity="1" stop-color="rgb(100%, 46.432495%, 71.160889%)" offset="0.140625"/><stop stop-opacity="1" stop-color="rgb(100%, 46.800232%, 70.832825%)" offset="0.148438"/><stop stop-opacity="1" stop-color="rgb(100%, 47.167969%, 70.504761%)" offset="0.15625"/><stop stop-opacity="1" stop-color="rgb(100%, 47.535706%, 70.176697%)" offset="0.164063"/><stop stop-opacity="1" stop-color="rgb(100%, 47.903442%, 69.848633%)" offset="0.171875"/><stop stop-opacity="1" stop-color="rgb(100%, 48.271179%, 69.520569%)" offset="0.179688"/><stop stop-opacity="1" stop-color="rgb(100%, 48.638916%, 69.194031%)" offset="0.1875"/><stop stop-opacity="1" stop-color="rgb(100%, 49.006653%, 68.865967%)" offset="0.195313"/><stop stop-opacity="1" stop-color="rgb(100%, 49.37439%, 68.537903%)" offset="0.203125"/><stop stop-opacity="1" stop-color="rgb(100%, 49.742126%, 68.209839%)" offset="0.210938"/><stop stop-opacity="1" stop-color="rgb(100%, 50.109863%, 67.881775%)" offset="0.21875"/><stop stop-opacity="1" stop-color="rgb(100%, 50.4776%, 67.553711%)" offset="0.226563"/><stop stop-opacity="1" stop-color="rgb(100%, 50.845337%, 67.225647%)" offset="0.234375"/><stop stop-opacity="1" stop-color="rgb(100%, 51.213074%, 66.897583%)" offset="0.242188"/><stop stop-opacity="1" stop-color="rgb(100%, 51.580811%, 66.569519%)" offset="0.25"/><stop stop-opacity="1" stop-color="rgb(100%, 51.948547%, 66.242981%)" offset="0.257812"/><stop stop-opacity="1" stop-color="rgb(100%, 52.316284%, 65.914917%)" offset="0.265625"/><stop stop-opacity="1" stop-color="rgb(100%, 52.684021%, 65.586853%)" offset="0.273438"/><stop stop-opacity="1" stop-color="rgb(100%, 53.051758%, 65.258789%)" offset="0.28125"/><stop stop-opacity="1" stop-color="rgb(100%, 53.419495%, 64.930725%)" offset="0.289062"/><stop stop-opacity="1" stop-color="rgb(100%, 53.787231%, 64.602661%)" offset="0.296875"/><stop stop-opacity="1" stop-color="rgb(100%, 54.154968%, 64.274597%)" offset="0.304688"/><stop stop-opacity="1" stop-color="rgb(100%, 54.522705%, 63.946533%)" offset="0.3125"/><stop stop-opacity="1" stop-color="rgb(100%, 54.890442%, 63.619995%)" offset="0.320313"/><stop stop-opacity="1" stop-color="rgb(100%, 55.258179%, 63.291931%)" offset="0.328125"/><stop stop-opacity="1" stop-color="rgb(100%, 55.625916%, 62.963867%)" offset="0.335938"/><stop stop-opacity="1" stop-color="rgb(100%, 55.993652%, 62.635803%)" offset="0.34375"/><stop stop-opacity="1" stop-color="rgb(100%, 56.361389%, 62.307739%)" offset="0.351562"/><stop stop-opacity="1" stop-color="rgb(100%, 56.729126%, 61.979675%)" offset="0.359375"/><stop stop-opacity="1" stop-color="rgb(100%, 57.096863%, 61.651611%)" offset="0.367188"/><stop stop-opacity="1" stop-color="rgb(100%, 57.4646%, 61.323547%)" offset="0.375"/><stop stop-opacity="1" stop-color="rgb(100%, 57.832336%, 60.995483%)" offset="0.382813"/><stop stop-opacity="1" stop-color="rgb(100%, 58.200073%, 60.668945%)" offset="0.390625"/><stop stop-opacity="1" stop-color="rgb(100%, 58.56781%, 60.340881%)" offset="0.398438"/><stop stop-opacity="1" stop-color="rgb(100%, 58.935547%, 60.012817%)" offset="0.40625"/><stop stop-opacity="1" stop-color="rgb(100%, 59.303284%, 59.684753%)" offset="0.414062"/><stop stop-opacity="1" stop-color="rgb(100%, 59.671021%, 59.356689%)" offset="0.421875"/><stop stop-opacity="1" stop-color="rgb(100%, 60.038757%, 59.028625%)" offset="0.429688"/><stop stop-opacity="1" stop-color="rgb(100%, 60.404968%, 58.700562%)" offset="0.4375"/><stop stop-opacity="1" stop-color="rgb(100%, 60.772705%, 58.372498%)" offset="0.445312"/><stop stop-opacity="1" stop-color="rgb(100%, 61.140442%, 58.045959%)" offset="0.453125"/><stop stop-opacity="1" stop-color="rgb(100%, 61.508179%, 57.717896%)" offset="0.460938"/><stop stop-opacity="1" stop-color="rgb(100%, 61.875916%, 57.389832%)" offset="0.46875"/><stop stop-opacity="1" stop-color="rgb(100%, 62.243652%, 57.061768%)" offset="0.476562"/><stop stop-opacity="1" stop-color="rgb(100%, 62.611389%, 56.733704%)" offset="0.484375"/><stop stop-opacity="1" stop-color="rgb(100%, 62.979126%, 56.40564%)" offset="0.492188"/><stop stop-opacity="1" stop-color="rgb(100%, 63.346863%, 56.077576%)" offset="0.5"/><stop stop-opacity="1" stop-color="rgb(100%, 63.7146%, 55.749512%)" offset="0.507812"/><stop stop-opacity="1" stop-color="rgb(100%, 64.082336%, 55.422974%)" offset="0.515625"/><stop stop-opacity="1" stop-color="rgb(100%, 64.450073%, 55.09491%)" offset="0.523437"/><stop stop-opacity="1" stop-color="rgb(100%, 64.81781%, 54.766846%)" offset="0.53125"/><stop stop-opacity="1" stop-color="rgb(100%, 65.185547%, 54.438782%)" offset="0.539062"/><stop stop-opacity="1" stop-color="rgb(100%, 65.553284%, 54.110718%)" offset="0.546875"/><stop stop-opacity="1" stop-color="rgb(100%, 65.921021%, 53.782654%)" offset="0.554688"/><stop stop-opacity="1" stop-color="rgb(100%, 66.288757%, 53.45459%)" offset="0.5625"/><stop stop-opacity="1" stop-color="rgb(100%, 66.656494%, 53.126526%)" offset="0.570312"/><stop stop-opacity="1" stop-color="rgb(100%, 67.024231%, 52.798462%)" offset="0.578125"/><stop stop-opacity="1" stop-color="rgb(100%, 67.391968%, 52.471924%)" offset="0.585938"/><stop stop-opacity="1" stop-color="rgb(100%, 67.759705%, 52.14386%)" offset="0.59375"/><stop stop-opacity="1" stop-color="rgb(100%, 68.127441%, 51.815796%)" offset="0.601562"/><stop stop-opacity="1" stop-color="rgb(100%, 68.495178%, 51.487732%)" offset="0.609375"/><stop stop-opacity="1" stop-color="rgb(100%, 68.862915%, 51.159668%)" offset="0.617188"/><stop stop-opacity="1" stop-color="rgb(100%, 69.230652%, 50.831604%)" offset="0.625"/><stop stop-opacity="1" stop-color="rgb(100%, 69.598389%, 50.50354%)" offset="0.632813"/><stop stop-opacity="1" stop-color="rgb(100%, 69.966125%, 50.175476%)" offset="0.640625"/><stop stop-opacity="1" stop-color="rgb(100%, 70.333862%, 49.848938%)" offset="0.648438"/><stop stop-opacity="1" stop-color="rgb(100%, 70.701599%, 49.520874%)" offset="0.65625"/><stop stop-opacity="1" stop-color="rgb(100%, 71.069336%, 49.19281%)" offset="0.664063"/><stop stop-opacity="1" stop-color="rgb(100%, 71.437073%, 48.864746%)" offset="0.671875"/><stop stop-opacity="1" stop-color="rgb(100%, 71.80481%, 48.536682%)" offset="0.679688"/><stop stop-opacity="1" stop-color="rgb(100%, 72.172546%, 48.208618%)" offset="0.6875"/><stop stop-opacity="1" stop-color="rgb(100%, 72.540283%, 47.880554%)" offset="0.695313"/><stop stop-opacity="1" stop-color="rgb(100%, 72.90802%, 47.55249%)" offset="0.703125"/><stop stop-opacity="1" stop-color="rgb(100%, 73.275757%, 47.224426%)" offset="0.710938"/><stop stop-opacity="1" stop-color="rgb(100%, 73.643494%, 46.897888%)" offset="0.71875"/><stop stop-opacity="1" stop-color="rgb(100%, 74.01123%, 46.569824%)" offset="0.726562"/><stop stop-opacity="1" stop-color="rgb(100%, 74.378967%, 46.24176%)" offset="0.734375"/><stop stop-opacity="1" stop-color="rgb(100%, 74.745178%, 45.913696%)" offset="0.742188"/><stop stop-opacity="1" stop-color="rgb(100%, 75.112915%, 45.585632%)" offset="0.75"/><stop stop-opacity="1" stop-color="rgb(100%, 75.480652%, 45.257568%)" offset="0.757813"/><stop stop-opacity="1" stop-color="rgb(100%, 75.848389%, 44.929504%)" offset="0.765625"/><stop stop-opacity="1" stop-color="rgb(100%, 76.216125%, 44.60144%)" offset="0.773438"/><stop stop-opacity="1" stop-color="rgb(100%, 76.583862%, 44.274902%)" offset="0.78125"/><stop stop-opacity="1" stop-color="rgb(100%, 76.951599%, 43.946838%)" offset="0.789063"/><stop stop-opacity="1" stop-color="rgb(100%, 77.319336%, 43.618774%)" offset="0.796875"/><stop stop-opacity="1" stop-color="rgb(100%, 77.687073%, 43.29071%)" offset="0.804688"/><stop stop-opacity="1" stop-color="rgb(100%, 78.05481%, 42.962646%)" offset="0.8125"/><stop stop-opacity="1" stop-color="rgb(100%, 78.422546%, 42.634583%)" offset="0.820312"/><stop stop-opacity="1" stop-color="rgb(100%, 78.790283%, 42.306519%)" offset="0.828125"/><stop stop-opacity="1" stop-color="rgb(100%, 79.15802%, 41.978455%)" offset="0.835938"/><stop stop-opacity="1" stop-color="rgb(100%, 79.525757%, 41.650391%)" offset="0.84375"/><stop stop-opacity="1" stop-color="rgb(100%, 79.893494%, 41.323853%)" offset="0.851562"/><stop stop-opacity="1" stop-color="rgb(100%, 80.26123%, 40.995789%)" offset="0.859375"/><stop stop-opacity="1" stop-color="rgb(100%, 80.628967%, 40.667725%)" offset="0.867188"/><stop stop-opacity="1" stop-color="rgb(100%, 80.996704%, 40.339661%)" offset="0.875"/><stop stop-opacity="1" stop-color="rgb(100%, 81.364441%, 40.011597%)" offset="0.882812"/><stop stop-opacity="1" stop-color="rgb(100%, 81.732178%, 39.683533%)" offset="0.890625"/><stop stop-opacity="1" stop-color="rgb(100%, 82.099915%, 39.355469%)" offset="0.898438"/><stop stop-opacity="1" stop-color="rgb(100%, 82.467651%, 39.027405%)" offset="0.90625"/><stop stop-opacity="1" stop-color="rgb(100%, 82.835388%, 38.700867%)" offset="0.914063"/><stop stop-opacity="1" stop-color="rgb(100%, 83.203125%, 38.372803%)" offset="0.921875"/><stop stop-opacity="1" stop-color="rgb(100%, 83.570862%, 38.044739%)" offset="0.929688"/><stop stop-opacity="1" stop-color="rgb(100%, 83.938599%, 37.716675%)" offset="0.9375"/><stop stop-opacity="1" stop-color="rgb(100%, 84.306335%, 37.388611%)" offset="0.945312"/><stop stop-opacity="1" stop-color="rgb(100%, 84.674072%, 37.060547%)" offset="0.953125"/><stop stop-opacity="1" stop-color="rgb(100%, 85.041809%, 36.732483%)" offset="0.960937"/><stop stop-opacity="1" stop-color="rgb(100%, 85.409546%, 36.404419%)" offset="0.96875"/><stop stop-opacity="1" stop-color="rgb(100%, 85.777283%, 36.076355%)" offset="0.976562"/><stop stop-opacity="1" stop-color="rgb(100%, 86.14502%, 35.749817%)" offset="0.984375"/><stop stop-opacity="1" stop-color="rgb(100%, 86.512756%, 35.421753%)" offset="0.992188"/><stop stop-opacity="1" stop-color="rgb(100%, 86.880493%, 35.093689%)" offset="1"/></linearGradient><clipPath id="c726d0bf55"><path d="M 118.898438 96.089844 L 248.648438 96.089844 L 248.648438 175.691406 L 118.898438 175.691406 Z M 118.898438 96.089844 " clip-rule="nonzero"/></clipPath></defs><rect x="-37.5" fill="url(#168b52bce7)" width="450" y="-37.499999" height="449.999989"/><g clip-path="url(#991b470bc0)"><g clip-path="url(#b034846955)"><g clip-path="url(#db0da40fec)"><path fill="#ffffff" d="M 121.746094 255.394531 C 69.476562 219.148438 56.433594 147.089844 92.679688 94.820312 C 128.925781 42.554688 200.984375 29.507812 253.253906 65.753906 C 305.519531 102 318.566406 174.058594 282.320312 226.328125 C 246.074219 278.597656 174.015625 291.640625 121.746094 255.394531 Z M 252.28125 67.15625 C 200.761719 31.429688 129.808594 44.273438 94.078125 95.792969 C 58.351562 147.3125 71.195312 218.265625 122.71875 253.996094 C 174.238281 289.722656 245.191406 276.878906 280.917969 225.355469 C 316.644531 173.835938 303.800781 102.882812 252.28125 67.15625 Z M 252.28125 67.15625 " fill-opacity="1" fill-rule="nonzero"/></g></g></g><g clip-path="url(#a92741eb14)"><path fill="url(#33e357e76d)" d="M 0 144.019531 L 0 311.722656 L 374.714844 311.722656 L 374.714844 144.019531 Z M 0 144.019531 " fill-rule="nonzero"/></g><g clip-path="url(#c726d0bf55)"><path fill="#5ce1e6" d="M 246.355469 160.859375 L 222.28125 137.714844 L 222.28125 110.699219 C 222.28125 108.289062 220.328125 106.335938 217.921875 106.335938 L 207.636719 106.335938 C 205.226562 106.335938 203.273438 108.289062 203.273438 110.699219 L 203.273438 119.4375 L 181.539062 98.539062 C 178.257812 95.382812 173.089844 95.3125 169.71875 98.375 L 121.730469 142 C 118.191406 145.214844 117.933594 150.6875 121.148438 154.226562 C 124.363281 157.761719 129.835938 158.023438 133.375 154.808594 L 175.375 116.625 L 234.355469 173.339844 C 236.035156 174.953125 238.195312 175.753906 240.355469 175.753906 C 242.628906 175.753906 244.894531 174.867188 246.59375 173.097656 C 249.910156 169.652344 249.800781 164.171875 246.355469 160.859375 " fill-opacity="1" fill-rule="nonzero"/></g><path fill="#ffffff" d="M 229.75 80.394531 C 229.75 82.410156 229 84.429688 227.492188 86.003906 L 225.414062 88.167969 L 214.171875 99.851562 L 202.925781 88.167969 L 200.851562 86.003906 C 199.34375 84.429688 198.589844 82.410156 198.589844 80.394531 C 198.589844 78.257812 199.429688 76.136719 201.082031 74.542969 C 204.304688 71.445312 209.4375 71.546875 212.535156 74.777344 L 214.171875 76.480469 L 215.808594 74.777344 C 218.90625 71.546875 224.039062 71.445312 227.257812 74.542969 C 228.910156 76.136719 229.75 78.257812 229.75 80.394531 " fill-opacity="1" fill-rule="nonzero"/><path fill="#ffffff" d="M 244.28125 189.652344 C 244.28125 189.652344 238.972656 193.515625 234.628906 192.550781 C 234.628906 192.550781 228.59375 188.207031 225.457031 187.964844 C 225.457031 187.964844 217.976562 192.308594 210.980469 188.445312 C 210.980469 188.445312 208.082031 192.066406 208.082031 196.652344 C 208.324219 200.996094 214.117188 204.375 214.117188 211.132812 C 213.875 218.128906 210.738281 226.816406 208.566406 232.851562 C 206.636719 239.125 202.292969 263.738281 231.25 257.222656 C 214.839844 265.429688 198.671875 255.535156 197.464844 236.46875 C 197.222656 229.472656 192.878906 232.125 192.640625 237.675781 C 190.949219 284.492188 266.484375 279.90625 241.625 223.921875 C 237.765625 215.234375 238.972656 206.0625 241.867188 202.445312 C 244.765625 198.824219 245.246094 190.378906 244.28125 189.652344 Z M 222.320312 191.824219 C 221.597656 192.066406 221.113281 192.789062 221.113281 193.515625 C 221.113281 194.480469 222.078125 195.203125 223.046875 195.203125 C 224.011719 195.203125 224.734375 194.480469 224.734375 193.515625 C 224.734375 193.03125 224.492188 192.550781 224.011719 192.066406 C 224.011719 192.550781 223.527344 192.789062 223.285156 192.789062 C 222.5625 192.789062 222.320312 192.550781 222.320312 192.066406 C 222.320312 191.824219 222.320312 191.824219 222.320312 191.824219 Z M 222.320312 191.824219 " fill-opacity="1" fill-rule="evenodd"/><path fill="#ffffff" d="M 150.40625 258.671875 C 170.921875 260.359375 183.710938 245.15625 185.640625 223.921875 C 186.605469 214.269531 193.363281 219.820312 192.878906 225.367188 C 191.191406 255.050781 169.714844 270.253906 145.824219 269.53125 C 103.109375 268.324219 121.691406 195.445312 141.960938 175.175781 C 141.960938 175.175781 146.789062 183.863281 153.785156 185.066406 C 161.027344 186.035156 168.507812 179.277344 169.230469 164.074219 C 167.300781 176.621094 155.234375 190.617188 146.304688 175.65625 C 142.925781 169.863281 142.6875 163.109375 146.0625 160.210938 C 149.203125 157.316406 164.644531 147.90625 172.851562 149.835938 C 181.054688 151.765625 188.777344 158.28125 189.742188 162.382812 C 190.707031 166.96875 189.742188 168.898438 191.191406 172.277344 C 192.640625 175.65625 196.5 180.242188 200.121094 183.621094 C 195.292969 194.722656 190.707031 195.203125 179.847656 192.789062 C 175.265625 191.824219 165.851562 196.894531 168.023438 211.613281 C 168.75 215.957031 170.679688 219.820312 172.367188 223.679688 C 180.332031 241.777344 168.75 255.535156 150.40625 258.671875 Z M 183.710938 166.246094 C 182.984375 166.726562 182.261719 167.453125 182.261719 168.417969 C 182.261719 169.863281 183.46875 170.832031 184.675781 170.832031 C 186.125 170.832031 187.089844 169.863281 187.089844 168.417969 C 187.089844 167.691406 186.605469 166.96875 186.125 166.726562 C 186.125 167.210938 185.640625 167.691406 184.917969 167.691406 C 184.191406 167.691406 183.710938 166.96875 183.710938 166.488281 C 183.710938 166.246094 183.710938 166.246094 183.710938 166.246094 Z M 183.710938 166.246094 " fill-opacity="1" fill-rule="evenodd"/><g fill="#5ce1e6" fill-opacity="1"><g transform="translate(90.387359, 301.816178)"><g><path d="M 10.578125 6.851562 C 16.007812 10.117188 20.960938 9.828125 23.507812 5.726562 C 25.683594 2.175781 24.980469 -0.863281 18.507812 -5.855469 C 14.625 -9.171875 13.515625 -11.066406 15.085938 -13.671875 C 15.933594 -15.082031 17.175781 -15.929688 18.285156 -16.28125 C 19.472656 -16.21875 21.574219 -15.363281 23.011719 -14.5 C 27.121094 -12.027344 27.183594 -9.417969 26.121094 -6.015625 L 29.40625 -4.488281 C 31.140625 -9.40625 30.195312 -13.40625 24.617188 -16.761719 C 19.550781 -19.808594 14.625 -20.035156 12.0625 -15.777344 C 9.71875 -11.878906 11.6875 -8.367188 16.972656 -4.453125 C 21.476562 -1.007812 21.929688 1.425781 20.492188 3.75 C 19.6875 5.019531 18.617188 5.847656 17.402344 6.507812 C 15.992188 6.476562 13.949219 5.734375 12.027344 4.578125 C 7.769531 2.019531 7.496094 -0.921875 8.707031 -4.15625 L 5.234375 -5.917969 C 2.972656 -0.867188 4.460938 3.171875 10.578125 6.851562 Z M 10.578125 6.851562 "/></g></g></g><g fill="#5ce1e6" fill-opacity="1"><g transform="translate(113.182305, 315.261163)"><g><path d="M 6.988281 3.347656 C 11.339844 5.101562 15.632812 3.058594 17.734375 0.28125 L 18.058594 0.414062 L 15.125 6.097656 L 18.628906 7.511719 C 19.179688 6.148438 19.859375 4.460938 20.640625 2.4375 C 21.445312 0.34375 22.039062 -1.226562 22.980469 -3.5625 C 25.488281 -9.871094 24.597656 -14.117188 18.882812 -16.421875 C 13.335938 -18.660156 9.644531 -17.089844 6.753906 -12.820312 L 9.816406 -10.871094 C 10.917969 -12.578125 12.261719 -13.847656 13.492188 -14.371094 C 14.53125 -14.515625 15.929688 -14.519531 17.164062 -14.023438 C 21.640625 -12.214844 21.242188 -8.980469 19.703125 -5.074219 L 19.535156 -4.652344 C 17.496094 -5.585938 15.898438 -6.304688 15.121094 -6.617188 C 10.1875 -8.609375 4.859375 -8.679688 3.066406 -4.234375 C 1.875 -1.28125 3.355469 1.878906 6.988281 3.347656 Z M 9.492188 1.261719 C 6.894531 0.214844 5.734375 -1.308594 6.691406 -3.679688 C 8.144531 -7.28125 13.246094 -5.527344 15.386719 -4.664062 C 16.460938 -4.230469 17.90625 -3.609375 18.953125 -3.113281 L 18.230469 -1.328125 C 16.941406 0 12.769531 2.582031 9.492188 1.261719 Z M 9.492188 1.261719 "/></g></g></g><g fill="#5ce1e6" fill-opacity="1"><g transform="translate(135.47056, 323.781943)"><g><path d="M 4.070312 1.164062 L 6.15625 1.757812 L 6.320312 1.1875 C 7.179688 -1.953125 8.71875 -7.589844 9.863281 -11.59375 C 11.066406 -15.800781 12.199219 -19.769531 13.519531 -24.015625 L 9.765625 -24.761719 C 8.671875 -20.671875 7.535156 -16.445312 6.335938 -12.238281 C 5.355469 -8.804688 3.570312 -2.691406 2.535156 0.6875 C 3.5 1 2.828125 0.808594 4.070312 1.164062 Z M 4.070312 1.164062 "/></g></g></g><g fill="#5ce1e6" fill-opacity="1"><g transform="translate(144.935978, 326.757124)"><g><path d="M 7.957031 1.425781 L 13.191406 2.363281 C 16.636719 -3.777344 21.132812 -11.398438 24.84375 -17.84375 L 21.054688 -18.519531 C 18.59375 -14.089844 12.222656 -2.929688 11.210938 -0.660156 L 10.898438 -0.714844 C 10.761719 -3.121094 8.488281 -16.433594 7.792969 -20.894531 L 4.003906 -21.574219 C 5.25 -14.242188 6.890625 -5.519531 7.957031 1.425781 Z M 7.957031 1.425781 "/></g></g></g><g fill="#5ce1e6" fill-opacity="1"><g transform="translate(167.849241, 330.767203)"><g><path d="M 7.714844 0.714844 C 12.402344 0.855469 15.722656 -2.550781 16.730469 -5.882812 L 17.082031 -5.871094 L 16.300781 0.476562 L 20.078125 0.589844 C 20.121094 -0.882812 20.175781 -2.699219 20.203125 -4.871094 C 20.234375 -7.109375 20.25 -8.789062 20.320312 -11.308594 C 20.484375 -18.09375 18.179688 -21.769531 12.019531 -21.949219 C 6.039062 -22.125 3.125 -19.375 1.890625 -14.367188 L 5.441406 -13.597656 C 5.882812 -15.582031 6.703125 -17.238281 7.675781 -18.15625 C 8.597656 -18.652344 9.910156 -19.140625 11.238281 -19.101562 C 16.066406 -18.960938 16.8125 -15.789062 16.722656 -11.589844 L 16.710938 -11.132812 C 14.476562 -11.304688 12.726562 -11.425781 11.890625 -11.449219 C 6.570312 -11.605469 1.546875 -9.828125 1.40625 -5.035156 C 1.316406 -1.851562 3.796875 0.601562 7.714844 0.714844 Z M 9.339844 -2.105469 C 6.539062 -2.1875 4.925781 -3.214844 5 -5.769531 C 5.113281 -9.652344 10.507812 -9.773438 12.816406 -9.707031 C 13.972656 -9.671875 15.546875 -9.59375 16.699219 -9.488281 L 16.640625 -7.566406 C 15.890625 -5.871094 12.871094 -2.003906 9.339844 -2.105469 Z M 9.339844 -2.105469 "/></g></g></g><g fill="#5ce1e6" fill-opacity="1"><g transform="translate(191.697858, 331.031249)"><g/></g></g><g fill="#5ce1e6" fill-opacity="1"><g transform="translate(201.491043, 330.692638)"><g><path d="M 2.855469 -0.542969 L 6.601562 -1.25 C 6.117188 -3.4375 5.488281 -6.5625 5.019531 -9.035156 C 4.847656 -9.929688 4.617188 -10.777344 4.378906 -11.660156 L 4.679688 -11.75 C 5.203125 -11.246094 5.613281 -10.398438 6.886719 -10.636719 L 12.527344 -11.707031 C 18.644531 -12.867188 21.113281 -16.007812 19.960938 -22.09375 C 18.703125 -28.730469 14.175781 -29.867188 7.609375 -28.621094 L -2.121094 -26.773438 C -1.277344 -22.519531 -0.414062 -18.15625 0.4375 -13.652344 C 1.292969 -9.148438 2.078125 -4.8125 2.855469 -0.542969 Z M 4.328125 -12.679688 C 4.3125 -12.75 4.289062 -12.886719 4.269531 -12.992188 L 2.054688 -24.859375 L 8.171875 -26.019531 C 12.644531 -26.867188 15.574219 -25.679688 16.421875 -21.207031 C 17.269531 -16.738281 14.746094 -14.65625 10.480469 -13.847656 Z M 4.328125 -12.679688 "/></g></g></g><g fill="#5ce1e6" fill-opacity="1"><g transform="translate(228.087261, 325.385773)"><g><path d="M 14.046875 -9 C 13.234375 -7.851562 11.824219 -6.707031 10.082031 -6.074219 C 6.363281 -4.726562 2.800781 -6.75 0.984375 -11.5625 L 16.085938 -18.152344 L 16.121094 -18.167969 C 13.472656 -24.539062 9.109375 -27.128906 3.320312 -25.027344 C -2.960938 -22.75 -5.042969 -17.601562 -2.527344 -10.660156 C -0.0664062 -3.882812 4.550781 -1.203125 10.800781 -3.46875 C 16.199219 -5.425781 18.269531 -9.15625 17.300781 -14.5 L 13.875 -13.371094 C 14.125 -11.859375 14.234375 -10.222656 14.046875 -9 Z M 4.007812 -22.410156 C 7.363281 -23.628906 10.230469 -21.988281 12.164062 -18.296875 L 0.40625 -13.25 C -0.1875 -15.195312 -0.519531 -16.933594 -0.285156 -18.546875 C 0.390625 -20.167969 2.035156 -21.695312 4.007812 -22.410156 Z M 4.007812 -22.410156 "/></g></g></g><g fill="#5ce1e6" fill-opacity="1"><g transform="translate(250.746152, 316.839291)"><g><path d="M 9.339844 -4.488281 C 10.800781 -5.246094 11.882812 -6.121094 12.871094 -7.027344 C 12.519531 -7.710938 11.917969 -9.019531 11.597656 -9.640625 C 10.734375 -8.71875 9.652344 -7.84375 8.285156 -7.132812 C 5.953125 -5.925781 4.484375 -7.921875 3.246094 -10.316406 C 1.648438 -13.390625 -0.585938 -17.632812 -2.085938 -20.597656 L 4.453125 -23.871094 C 4.214844 -24.339844 4.035156 -24.757812 3.824219 -25.160156 C 3.617188 -25.566406 3.421875 -26.015625 3.257812 -26.484375 C 1.007812 -25.277344 -1.414062 -23.941406 -3.28125 -22.976562 C -4.054688 -24.546875 -4.519531 -25.445312 -5.632812 -27.589844 C -6.71875 -26.949219 -7.789062 -26.351562 -8.878906 -25.789062 L -6.542969 -21.285156 C -7.460938 -20.847656 -8.6875 -20.25 -9.554688 -19.800781 L -8.269531 -17.316406 L -5.285156 -18.941406 L -0.96875 -10.613281 C 1.769531 -5.332031 3.964844 -1.703125 9.339844 -4.488281 Z M 9.339844 -4.488281 "/></g></g></g><g fill="#5ce1e6" fill-opacity="1"><g transform="translate(266.54606, 308.709719)"><g><path d="M 8.765625 -5.535156 C 13.347656 -8.691406 15.070312 -12.851562 12.785156 -16.167969 C 10.839844 -18.992188 7.960938 -19.21875 2.496094 -16.171875 C -2.03125 -13.859375 -3.394531 -14.109375 -4.664062 -15.953125 C -5.398438 -17.019531 -5.71875 -18.285156 -5.617188 -19.25 C -5.097656 -20.035156 -4.027344 -21.195312 -2.789062 -22.050781 C 0.496094 -24.3125 2.953125 -23.710938 5.628906 -21.308594 L 8.234375 -23.570312 C 4.417969 -27.441406 0.503906 -27.632812 -4.136719 -24.4375 C -8.398438 -21.496094 -9.976562 -17.433594 -7.933594 -14.464844 C -5.925781 -11.554688 -3.464844 -11.128906 2.46875 -14.238281 C 6.511719 -16.390625 8.324219 -16.535156 9.636719 -14.632812 C 10.332031 -13.625 10.808594 -12.253906 10.8125 -11.320312 C 10.253906 -10.34375 9.167969 -9.082031 7.582031 -7.988281 C 4.703125 -6.003906 2.066406 -6.3125 -0.339844 -8.140625 L -3.003906 -5.960938 C 0.214844 -2.953125 4.328125 -2.472656 8.765625 -5.535156 Z M 8.765625 -5.535156 "/></g></g></g></svg>